<?xml version="1.0" standalone="no"?>
<!DOCTYPE svg PUBLIC "-//W3C//DTD SVG 20010904//EN"
 "http://www.w3.org/TR/2001/REC-SVG-20010904/DTD/svg10.dtd">
<svg version="1.0" xmlns="http://www.w3.org/2000/svg"
 width="1135.000000pt" height="1135.000000pt" viewBox="0 0 1135.000000 1135.000000"
 preserveAspectRatio="xMidYMid meet">
<metadata>
Created by potrace 1.11, written by Peter Selinger 2001-2013
</metadata>
<g transform="translate(0.000000,1135.000000) scale(0.100000,-0.100000)"
fill="#000000" stroke="none">
<path d="M9497 8943 c-3 -5 -5 -1049 -5 -2320 l0 -2313 859 0 859 0 0 2320 0
2320 -854 0 c-470 0 -857 -3 -859 -7z"/>
<path d="M56 8893 c8 -27 17 -59 19 -73 4 -19 86 -343 119 -470 44 -166 194
-759 201 -793 2 -9 6 -21 9 -25 3 -5 7 -19 10 -33 2 -13 16 -71 31 -129 15
-58 28 -112 30 -120 2 -8 22 -87 45 -175 23 -88 43 -167 45 -175 2 -8 24 -96
50 -195 26 -99 55 -214 65 -255 10 -41 24 -95 30 -120 7 -25 13 -53 15 -63 2
-9 6 -21 9 -25 3 -5 7 -19 9 -33 3 -13 24 -97 46 -186 23 -88 44 -169 46 -180
2 -10 25 -99 50 -198 26 -99 48 -187 50 -195 13 -55 149 -585 161 -630 9 -30
17 -62 19 -70 2 -8 13 -53 25 -100 12 -47 26 -101 30 -120 8 -33 77 -303 141
-550 34 -131 37 -143 43 -167 8 -36 178 -702 207 -813 17 -63 32 -122 34 -130
1 -8 8 -35 15 -60 7 -25 14 -52 16 -60 2 -8 21 -82 42 -165 l38 -150 975 -3
975 -2 14 67 c8 38 15 70 15 73 0 3 4 21 8 40 4 19 9 46 12 60 3 14 9 48 15
75 6 28 12 59 14 70 3 11 18 88 35 170 18 83 34 164 37 180 3 17 9 48 14 70 5
22 12 56 15 75 3 19 8 42 10 50 5 18 81 389 90 440 3 19 10 51 15 70 5 19 11
46 13 60 4 22 50 252 61 305 14 62 68 328 77 375 6 30 12 60 14 65 3 17 16 79
19 95 1 8 8 40 14 70 6 30 14 66 16 80 3 14 14 70 26 125 11 55 23 114 26 130
3 17 10 50 16 75 6 25 12 54 14 65 2 11 15 81 29 155 26 135 82 437 88 475 57
358 84 505 93 505 6 0 11 -6 11 -12 0 -16 11 -94 18 -128 2 -13 7 -42 10 -65
3 -22 8 -47 10 -55 2 -8 6 -33 10 -55 8 -56 13 -88 30 -180 7 -44 16 -96 19
-115 5 -33 9 -50 21 -110 3 -14 8 -43 11 -65 3 -22 8 -43 9 -46 2 -3 7 -28 11
-55 3 -27 8 -51 9 -54 2 -3 6 -25 10 -50 4 -25 8 -47 10 -50 2 -3 6 -26 10
-50 3 -25 12 -72 20 -105 8 -33 17 -73 19 -90 3 -16 10 -50 15 -75 6 -25 42
-196 81 -380 66 -310 83 -394 96 -460 3 -14 11 -53 19 -86 8 -34 16 -73 19
-85 4 -23 33 -164 42 -204 3 -11 11 -51 19 -90 32 -155 47 -224 66 -310 10
-49 21 -99 23 -110 2 -11 14 -65 26 -120 11 -55 25 -120 30 -145 5 -25 11 -54
14 -65 15 -70 49 -233 52 -248 2 -10 5 -26 8 -35 3 -9 8 -33 11 -52 3 -19 8
-42 10 -50 2 -8 6 -26 9 -40 2 -14 11 -59 20 -100 9 -41 16 -76 16 -77 0 -2
433 -3 963 -3 l962 0 21 88 c12 48 38 150 59 227 20 77 38 147 40 155 2 8 15
56 29 105 13 50 45 171 71 270 56 219 88 337 245 935 67 256 141 539 165 630
24 91 77 293 118 450 42 157 92 348 112 425 20 77 50 192 67 255 16 63 32 122
34 130 7 31 24 93 119 454 53 204 99 381 102 395 2 13 6 28 8 31 4 6 100 365
110 410 2 8 17 69 35 135 18 66 33 127 35 135 2 8 22 83 43 165 22 83 57 213
77 290 20 77 48 183 62 235 14 52 26 100 27 105 1 6 5 19 9 30 3 11 8 31 11
45 3 14 25 102 50 195 26 94 48 180 50 193 l5 22 -975 0 c-536 0 -974 -2 -974
-4 0 -7 -20 -106 -45 -221 -55 -255 -75 -347 -119 -559 -26 -120 -51 -237 -56
-260 -12 -50 -77 -351 -84 -386 -8 -42 -46 -224 -50 -240 -6 -22 -54 -251 -60
-283 -2 -15 -7 -35 -10 -45 -5 -14 -101 -479 -111 -532 -9 -54 -16 -88 -20
-110 -3 -14 -12 -63 -21 -110 -9 -47 -18 -94 -20 -105 -2 -11 -6 -33 -9 -50
-2 -16 -6 -41 -9 -55 -3 -13 -8 -42 -11 -65 -3 -22 -8 -47 -10 -55 -2 -8 -7
-31 -10 -50 -3 -19 -7 -46 -10 -60 -3 -14 -7 -41 -10 -60 -3 -19 -12 -71 -20
-115 -8 -44 -17 -96 -20 -115 -3 -19 -10 -60 -15 -90 -5 -30 -12 -71 -15 -90
-3 -19 -7 -46 -10 -60 -3 -14 -7 -38 -9 -55 -3 -16 -12 -75 -21 -129 -9 -55
-17 -108 -18 -118 -2 -34 -22 -12 -29 33 -6 44 -17 106 -23 138 -1 9 -6 36
-10 61 -4 25 -9 54 -11 65 -2 11 -7 34 -9 50 -3 17 -10 55 -16 85 -5 30 -19
105 -29 165 -11 61 -22 121 -25 135 -2 14 -23 122 -45 240 -22 118 -51 269
-65 335 -13 66 -26 131 -29 145 -3 14 -10 50 -16 80 -7 30 -13 62 -14 70 -2
14 -17 80 -36 165 -10 42 -116 533 -124 575 -3 14 -19 88 -36 165 -34 154 -38
169 -45 205 -7 37 -64 299 -75 345 -13 57 -143 657 -180 830 -11 55 -23 108
-26 118 -5 16 -55 17 -864 17 -809 0 -859 -1 -864 -17 -3 -10 -15 -63 -26
-118 -12 -55 -23 -107 -25 -115 -2 -8 -20 -91 -40 -185 -20 -93 -38 -179 -41
-190 -2 -11 -6 -32 -9 -47 -3 -14 -14 -64 -25 -110 -10 -46 -21 -94 -24 -108
-4 -24 -54 -259 -61 -290 -4 -19 -30 -136 -56 -260 -11 -52 -22 -102 -24 -110
-2 -8 -15 -69 -29 -135 -14 -66 -41 -194 -61 -284 -38 -179 -42 -198 -50 -238
-3 -16 -8 -36 -11 -45 -3 -10 -7 -28 -9 -40 -3 -13 -25 -119 -50 -236 -52
-246 -105 -508 -109 -537 -2 -11 -6 -31 -9 -45 -6 -25 -45 -232 -53 -280 -3
-14 -9 -47 -14 -75 -16 -81 -19 -97 -26 -139 -3 -22 -7 -43 -9 -46 -2 -3 -6
-23 -9 -45 -6 -36 -26 -144 -57 -303 -12 -58 -17 -61 -25 -16 -2 16 -6 38 -9
49 -2 11 -7 43 -10 70 -4 28 -8 57 -10 65 -2 8 -7 35 -10 60 -3 25 -7 52 -9
60 -1 8 -6 38 -10 65 -4 28 -14 88 -22 135 -8 47 -17 101 -20 120 -12 79 -65
389 -75 439 -6 30 -12 64 -14 75 -1 12 -5 35 -8 51 -4 17 -9 45 -12 62 -3 18
-14 78 -25 133 -11 55 -22 115 -25 133 -6 36 -79 385 -97 462 -6 28 -13 57
-14 65 -1 12 -52 247 -80 375 -2 11 -6 31 -9 45 -4 20 -35 168 -71 335 -2 11
-6 31 -9 45 -3 14 -7 36 -10 50 -3 14 -10 45 -15 70 -5 25 -19 88 -30 140 -11
52 -32 147 -45 210 -13 63 -41 192 -60 285 -20 94 -38 179 -41 190 -2 11 -13
62 -24 114 -11 52 -20 98 -20 103 0 4 -429 8 -954 8 l-954 0 14 -47z"/>
<path d="M9492 3090 l0 -650 859 0 859 0 0 650 0 650 -859 0 -858 0 -1 -650z"/>
</g>
</svg>
